<svg id="Capa_1" data-name="Capa 1" xmlns="http://www.w3.org/2000/svg" viewBox="0 0 739.81 667.12"><defs><style>.cls-1{fill:#070707;}.cls-2{fill:#95d012;}.cls-3{fill:#ee9fb9;}.cls-4{fill:#6d6e72;}</style></defs><title>logo gathogar</title><path class="cls-1" d="M511.92,438s-32.85-4.39-53.44-12-56.9-27.29-72.86-48.11-23.6-43.95-23.83-58.52,2.55-33.31,6-40.49c-15.39-23.07-21-53.63-25.55-80.52a398.85,398.85,0,0,1-5.47-58.12c-.38-17.87-1.74-39.14,4.33-56.24,1.31-3.71,4.09-7.12,7.88-8.16,4.4-1.2,9.06,1,12.51,4,7.86,6.78,15.1,14.62,22.69,21.74q10.07,9.44,20.16,18.85s44.41,38.63,58.75,48.81,22,16,22,16,28.91-8.56,59.21-9.48,52.51,3.47,52.51,3.47S636.6,143,654,123.82s56.44-63.38,56.44-63.38,7.4-10.87,16.65,0c3.72,4.36,4.91,13.84,6.09,19.38q2.6,12.15,4.3,24.45a359.85,359.85,0,0,1-.67,103.87c-2.07,13.59-3.46,27.53-8.26,40.51-1.09,2.94-3.28,6-4,8.94-1,3.68-.32,4,1.35,7.91a93.37,93.37,0,0,1,5.86,19.63c11.08,59.4-33.72,105.89-82.57,131.08-14.8,7.63-29.84,11.56-34,12.72S592,434.25,592,434.25c-3,.66-4.39,20.94-4.5,23.7a205.34,205.34,0,0,0,2.33,38.29C597.8,550,623.43,600,613,655.62c29,.94,54.69-2.71,81.11-15.09,14.32-6.71,28.58-15.77,44.63-17.56,22.66-2.52,30.51,22.56,24.39,40.16,8.66.47,14.69,9.15,17.21,16.71,1.71,5.13,2.43,10.71,1.16,16a26.73,26.73,0,0,1-10.16,14.66c-14.71,11.08-36.89,10.94-54.47,11.32-75.94,1.61-152,.84-228,.07-8.29-.09-16.66,1-25-.1-8.05-1-16.09-3.89-22-9.43-4.82-4.5-8-10.55-13.85-13.93-7-4.07-15.79-6.51-23.54-8.78-21.6-6.33-49.4-12.21-71.17-3.82,3.85,9,7.39,19,.08,27.36-6.71,7.73-18.91,8.33-28.37,8.61-38.19,1.14-76.4,1-114.6.34-17.37-.3-36.2,1.28-53.22-2.48-15.36-3.39-29.44-11.56-41.49-21.48A135.65,135.65,0,0,1,69,668.55a161.44,161.44,0,0,1-26.58-84.71c-1.27-50.3,25.33-91.47,65.19-120.44,23.44-17,48.72-30.61,73.08-46.11,32.51-20.68,67.24-49.58,87-83.2,15.49-26.37,22.43-46.26,25.67-69.86s-1.62-53.2-10.18-70.32-16.65-28.68-24.75-36.32S238,138.86,220.92,131.92a98.75,98.75,0,0,0-42.56-7.64c-11.57.47-33.08,3.71-44.88,11.11-18.28,11.47-32.61,30.24-35.79,51.91-4.65,31.74,14,65.75,49.49,61.84,15.87-1.74,28.64-13.49,24.37-30.28-3.57-14-17.73-21.5-6.85-36.62a12.72,12.72,0,0,1,8.18-5.47C192.07,174,199.79,208,200.7,221.46c1.54,23.07-11.09,43.17-32.48,51.93-24.79,10.15-54.58,3.81-73.79-14.63-1.17-1.13-2.31-2.3-3.4-3.51-39.64-44-22.37-114.7,26.18-144.18A97.46,97.46,0,0,1,146.44,99.3a152.15,152.15,0,0,1,76.73,3.14c28.78,8.92,53,30.21,70.29,54.48,12.48,17.53,20.11,36.25,24.85,57.12,9,39.78-1.86,85.12-11.57,105.25s-24.06,48.57-53,75.41-62.46,48.34-80.27,59-32.85,19.2-32.85,19.2,40.48-12.49,73.56-8.33,94.84,18.05,147.35,22.9,81.89,6.94,106-1.85,35.16-21.51,38.16-27.76S511.92,438,511.92,438Z" transform="translate(-42.33 -55.61)"/><path class="cls-2" d="M511.24,340.88c.88-6.61-1.45-14.7-3.28-21a94.54,94.54,0,0,0-8.68-20.46A92.73,92.73,0,0,0,469,267.31c-8.09-5.19-16.34-9-26.05-10.17-25.19-2.95-40.24,2.94-47.17,5.09s-15.88,8.1-15.9,8.11c-.66.43,4.68,14.37,5.1,15.86a78,78,0,0,0,8.52,19.62c14,23.11,39.14,36.72,66,36.86,17.16.09,33.36-4.48,50.53-1.64" transform="translate(-42.33 -55.61)"/><path d="M440.56,277.58l5.16-9.49c-.21.38,2.24,4.55,2.44,5.06,7.26,17.93,1.62,38-6.56,54.52a28.38,28.38,0,0,1-2-2.5c-1.9-3.27-2.68-7.25-3.25-10.94a71.64,71.64,0,0,1,2.18-31.14c.55-1.86,1.9-4.07,2-6" transform="translate(-42.33 -55.61)"/><path class="cls-3" d="M550.9,369.42c2.7-2.26,5.11-5.32,7.51-8,2.22-2.45,4.57-5.26,5-8.67a4.5,4.5,0,0,0-.66-3.07c-1.09-1.57-3.29-2.09-5.05-2.5-3.84-.89-8.08-.47-11.95,0-3.59.4-7.85.65-10.39,3.54-2.19,2.5-.54,5.73,1.31,7.87a67.15,67.15,0,0,0,6.36,6.7,63.12,63.12,0,0,0,5.8,4.47Z" transform="translate(-42.33 -55.61)"/><path class="cls-4" d="M551.71,384.4a13.31,13.31,0,0,1,1.25,1.33c1.9,2.07,4.7,4.52,7.65,4.85a8.58,8.58,0,0,0,4.77-1,6.58,6.58,0,0,0,1.25-2,.84.84,0,0,1,.38-.41c.59-.22,1.27.73,1.4,1.21a2.87,2.87,0,0,1-.69,2.3,6.9,6.9,0,0,1-6.07,2.83c-2.43-.07-4.78-.74-7.24-.74a53.18,53.18,0,0,0-10.14,1.11c-2.52.48-5.15,1.17-7.66.25a6.08,6.08,0,0,1-2.93-2.07c-.41-.6-.94-3.35.52-3,.87.21,1.47,1.09,2.2,1.56a6.81,6.81,0,0,0,6.38.43,11.17,11.17,0,0,0,4-3.57,26.07,26.07,0,0,1,1.74-2.16c.47-.47,1.12-1.42,1.84-1.44a1.45,1.45,0,0,1,.5.11A2.73,2.73,0,0,1,551.71,384.4Z" transform="translate(-42.33 -55.61)"/><path class="cls-2" d="M585.48,338.39c-1.81-6.42-.64-14.75.28-21.25a94.46,94.46,0,0,1,5.7-21.48,93,93,0,0,1,25.41-36.06c7.28-6.27,14.9-11.24,24.35-13.74,24.52-6.47,40.25-2.77,47.43-1.62S705.51,250,705.53,250c.71.33-2.61,14.88-2.81,16.42a78.21,78.21,0,0,1-5.67,20.63c-10.64,24.86-33.56,41.87-60.16,45.8-17,2.51-33.66.28-50.26,5.51" transform="translate(-42.33 -55.61)"/><path d="M646.52,265.76l-6.45-8.68c.26.35-1.57,4.83-1.7,5.36-4.66,18.78,3.75,37.8,14.19,53.05a30.46,30.46,0,0,0,1.6-2.75c1.43-3.51,1.64-7.56,1.68-11.29a71.84,71.84,0,0,0-6.55-30.53c-.81-1.76-2.46-3.76-2.87-5.63" transform="translate(-42.33 -55.61)"/></svg>